<svg width="96" height="96" xmlns="http://www.w3.org/2000/svg" xmlns:xlink="http://www.w3.org/1999/xlink" xml:space="preserve" overflow="hidden"><defs><clipPath id="clip0"><rect x="1018" y="518" width="96" height="96"/></clipPath></defs><g clip-path="url(#clip0)" transform="translate(-1018 -518)"><path d="M1094.8 581.6C1090.4 578 1084.8 575.6 1079.2 574 1075.2 572.8 1070.8 572 1066 572 1061.6 572 1057.2 572.8 1052.8 574 1047.2 575.6 1041.6 578.4 1037.2 581.6 1035.2 583.2 1034 585.6 1034 588L1034 604 1098 604 1098 588C1098 585.6 1096.8 583.2 1094.8 581.6Z"/><path d="M1050.4 538.4C1051 538.4 1051.5 538.2 1051.8 537.8L1051.8 537.8C1055.5 534.2 1060.5 532 1066 532 1077 532 1086 541 1086 552L1086 556.6 1074.5 560.4C1074 560.2 1073.5 560 1073 560 1071.3 560 1070 561.3 1070 563 1070 564.7 1071.3 566 1073 566 1074.2 566 1075.3 565.3 1075.8 564.2L1091.7 558.9C1092.5 558.6 1093.1 557.9 1093.1 557L1093.1 548C1093.1 546.9 1092.2 546 1091.1 546L1089.3 546C1086.6 535.7 1077.2 528 1066 528 1059.5 528 1053.6 530.6 1049.2 534.8 1048.7 535.2 1048.4 535.7 1048.4 536.4 1048.4 537.5 1049.3 538.4 1050.4 538.4Z"/><path d="M1081.9 553.7C1082 553.1 1082 552.6 1082 552 1082 543.2 1074.8 536 1066 536 1057.2 536 1050 543.2 1050 552 1050 560.8 1057.2 568 1066 568 1066.3 568 1066.7 568 1067 567.9L1067 563 1067 563C1067 562.1 1067.2 561.2 1067.6 560.3 1068.3 558.9 1069.5 557.8 1071.1 557.3L1081.9 553.7Z"/></g></svg>