<svg width="96" height="96" xmlns="http://www.w3.org/2000/svg" xmlns:xlink="http://www.w3.org/1999/xlink" xml:space="preserve" overflow="hidden"><defs><clipPath id="clip0"><rect x="637" y="421" width="96" height="96"/></clipPath></defs><g clip-path="url(#clip0)" transform="translate(-637 -421)"><path d="M657.9 478.6 677.1 459.4 666.4 459.4C669.9 452.6 677 447.9 685.2 447.9 690.5 447.9 695.4 449.9 699.1 453.2L718.6 453.2C712.7 440.6 699.9 432 685.2 432 668.1 432 653.7 443.6 649.5 459.4L638.7 459.4 657.9 478.6Z"/><path d="M731.6 478.6 712.4 459.4 693.2 478.6 704 478.6C700.5 485.4 693.4 490.1 685.2 490.1 679.9 490.1 675 488.1 671.3 484.8L651.7 484.8C657.7 497.4 670.4 506 685.2 506 702.3 506 716.7 494.4 720.9 478.6L731.6 478.6Z"/></g></svg>