<svg width="96" height="96" xmlns="http://www.w3.org/2000/svg" xmlns:xlink="http://www.w3.org/1999/xlink" xml:space="preserve" overflow="hidden"><defs><clipPath id="clip0"><rect x="373" y="83" width="96" height="96"/></clipPath></defs><g clip-path="url(#clip0)" transform="translate(-373 -83)"><path d="M417.9 155.4C417.4 155.4 416.8 155.3 416.4 154.9 415.6 154.2 415.5 152.9 416.2 152.1L420.1 147.6C420.8 146.8 422.1 146.7 422.9 147.4 423.7 148.1 423.8 149.4 423.1 150.2L419.2 154.7C418.9 155.1 418.4 155.3 417.9 155.4Z"/><path d="M411.8 153.1C411.1 153.2 410.5 153 409.9 152.5 408.9 151.6 408.8 150 409.7 149L414.3 143.7C415.2 142.7 416.8 142.6 417.8 143.5 418.8 144.4 418.9 146 418 147L413.4 152.3C413 152.8 412.4 153.1 411.8 153.1Z"/><path d="M405.5 149.4C404.7 149.5 403.9 149.2 403.3 148.7 402.1 147.6 401.9 145.7 403 144.5L407.6 139.2C408.7 138 410.6 137.8 411.8 138.9 413 140 413.2 141.9 412.1 143.1L407.5 148.4C407 149 406.2 149.4 405.5 149.4Z"/><path d="M398.2 145.7C397.4 145.8 396.6 145.5 396 145 394.8 143.9 394.6 142 395.7 140.8L401 134.8C402.1 133.6 404 133.4 405.2 134.5 406.4 135.6 406.6 137.5 405.5 138.7L400.2 144.7C399.6 145.3 398.9 145.6 398.2 145.7Z"/><path d="M377.6 123.7 385.3 128.4C386.2 129 387.5 128.7 388 127.7L397.3 112.3C397.9 111.4 397.6 110.1 396.6 109.6L389 104.9 377.6 123.7Z"/><path d="M442.4 136.8 426.3 123 425.2 122 418.3 129.9C417.3 131.1 415.9 131.8 414.3 131.9 414.1 131.9 413.9 131.9 413.8 131.9 412.3 131.9 410.9 131.4 409.9 130.4 407.4 128.2 407.2 124.4 409.3 121.9L415.2 115.1C410.6 114.5 404.7 116.9 398.6 113.9L389.9 128.3 396.7 136.2 399.3 133.2C400.2 132.1 401.6 131.5 403.1 131.5L403.1 131.5C404.3 131.5 405.5 131.9 406.4 132.7 407.5 133.6 408 134.9 408.1 136.3 408.6 136.1 409.2 136 409.8 136 411 136 412.2 136.4 413.1 137.2 414.2 138.2 414.8 139.5 414.8 140.9 415.2 140.8 415.7 140.7 416.1 140.7L416.1 140.7C417.2 140.7 418.2 141.1 419.1 141.8 420 142.6 420.5 143.7 420.6 144.9 420.9 144.8 421.3 144.7 421.7 144.7L421.7 144.7C422.7 144.7 423.6 145 424.3 145.7 425.1 146.4 425.6 147.4 425.7 148.4 425.8 149.5 425.4 150.5 424.7 151.3L421.3 155.2 422.7 156.3C423.4 156.7 424.2 157 425.1 156.9 427.3 156.7 428.9 154.8 428.7 152.6 428.7 152.6 428.7 152.5 428.7 152.5 429 152.6 429.4 152.6 429.7 152.6 431.9 152.4 433.5 150.5 433.3 148.3 433.3 148.3 433.3 148.2 433.3 148.2 433.6 148.3 434 148.3 434.3 148.3 436.5 148.1 438.1 146.2 437.9 144 437.9 143.8 437.8 143.6 437.8 143.4 438.4 143.7 439.1 143.9 439.9 143.8 442.1 143.6 443.7 141.7 443.5 139.5 443.6 138.4 443.1 137.5 442.4 136.8Z"/><path d="M464.4 123.7 456.7 128.4C455.8 129 454.5 128.7 454 127.7L444.7 112.3C444.1 111.4 444.4 110.1 445.4 109.6L453.1 104.9 464.4 123.7Z"/><path d="M443.5 114.3C435.2 117.3 429.2 114.4 422.5 113.1 422.4 113.1 422 113 422 113 420.8 112.9 419.5 113.3 418.6 114.3L410.7 123.3C409.2 125 409.4 127.5 411.1 128.9 412 129.6 413 130 414.1 129.9 415.1 129.8 416.1 129.4 416.8 128.5 416.8 128.5 425 119.1 425 119.1L443.7 135.2 443.7 135.2 443.7 135.2C444.2 135.7 444.4 135.9 444.8 136.5L452 128.2 443.5 114.3Z"/></g></svg>