<svg width="96" height="96" xmlns="http://www.w3.org/2000/svg" xmlns:xlink="http://www.w3.org/1999/xlink" xml:space="preserve" overflow="hidden"><defs><clipPath id="clip0"><rect x="477" y="421" width="96" height="96"/></clipPath></defs><g clip-path="url(#clip0)" transform="translate(-477 -421)"><path d="M525 431C504 431 487 448 487 469 487 490 504 507 525 507 546 507 563 490 563 469 563 448 546 431 525 431ZM523 441C525.8 441 528 443.2 528 446 528 448.8 525.8 451 523 451 520.2 451 518 448.8 518 446 518 443.2 520.2 441 523 441ZM535 497 515 497 515 491 522 491 522 461 516 461 516 455 528 455 528 461 528 491 535 491 535 497Z"/></g></svg>