<svg width="96" height="96" xmlns="http://www.w3.org/2000/svg" xmlns:xlink="http://www.w3.org/1999/xlink" xml:space="preserve" overflow="hidden"><defs><clipPath id="clip0"><rect x="294" y="421" width="96" height="96"/></clipPath></defs><g clip-path="url(#clip0)" transform="translate(-294 -421)"><path d="M360 501 324 501 324 437 360 437 360 501ZM338 429 346 429C347.1 429 348 429.9 348 431 348 432.1 347.1 433 346 433L338 433C336.9 433 336 432.1 336 431 336 429.9 336.9 429 338 429ZM364 425 320 425C318.9 425 318 425.9 318 427L318 511C318 512.1 318.9 513 320 513L364 513C365.1 513 366 512.1 366 511L366 427C366 425.9 365.1 425 364 425Z"/></g></svg>