<svg width="96" height="96" xmlns="http://www.w3.org/2000/svg" xmlns:xlink="http://www.w3.org/1999/xlink" xml:space="preserve" overflow="hidden"><defs><clipPath id="clip0"><rect x="898" y="277" width="96" height="96"/></clipPath></defs><g clip-path="url(#clip0)" transform="translate(-898 -277)"><path d="M952.472 326.361C951.146 334.595 947.894 342.4 942.981 349.14L943.235 349.394C941.677 349.572 940.187 349.768 938.886 349.957 939.27 348.325 939.032 346.609 938.218 345.143 937.417 343.941 936.057 343.231 934.612 343.261L934.572 343.261C931.845 343.282 928.917 344.735 926.454 346.397 926.387 346.244 926.313 346.092 926.231 345.943 925.433 344.508 924 343.539 922.371 343.333 921.122 343.186 919.858 343.398 918.725 343.944 919.238 341.775 919.193 339.51 918.594 337.363 917.767 334.812 915.754 332.821 913.194 332.022 911.289 331.401 909.265 331.234 907.284 331.533 905.436 331.801 903.628 332.293 901.9 333 900.344 333.568 899.542 335.29 900.11 336.847 900.678 338.403 902.401 339.204 903.957 338.636 904.005 338.619 904.053 338.6 904.1 338.58 905.371 338.057 906.701 337.689 908.061 337.485 909.12 337.31 910.206 337.383 911.232 337.697 912.016 337.882 912.645 338.464 912.889 339.231 914.045 342.76 910.194 350.78 906.897 355.731 906.75 355.943 906.613 356.147 906.484 356.338 905.556 357.711 905.918 359.576 907.29 360.503 908.656 361.426 910.509 361.074 911.442 359.717 911.516 359.61 911.631 359.442 911.781 359.217 914.938 354.617 919.036 350.292 920.944 349.426 920.827 350.292 920.595 351.139 920.253 351.943 919.583 353.458 920.269 355.23 921.785 355.899 922.924 356.403 924.257 356.15 925.132 355.263 927.354 352.999 929.94 351.125 932.783 349.719 932.539 350.668 932.225 351.597 931.842 352.498 931.182 354.018 931.878 355.785 933.398 356.445 933.946 356.683 934.554 356.752 935.142 356.643 935.203 356.631 941.312 355.507 947.222 355.029 947.663 354.99 948.09 354.854 948.471 354.629L948.671 354.829C955.411 349.915 963.216 346.663 971.451 345.338 971.451 345.338 972.735 338.371 982.729 328.359L969.444 315.075C959.43 325.069 952.472 326.361 952.472 326.361ZM962.913 338.7C962.138 339.474 960.97 339.698 959.963 339.268L946.763 352.468 945.35 351.052 958.55 337.852C957.969 336.489 958.603 334.913 959.966 334.332 961.329 333.75 962.905 334.384 963.486 335.747 963.916 336.755 963.689 337.924 962.914 338.698Z" fill="#FF0000"/><path d="M970.438 310.316 987.522 327.4C987.522 327.4 989.213 325.851 991.981 323.308L991.981 287C980.085 299.8 970.438 310.316 970.438 310.316Z" fill="#FF0000"/></g></svg>