<svg width="96" height="96" xmlns="http://www.w3.org/2000/svg" xmlns:xlink="http://www.w3.org/1999/xlink" xml:space="preserve" overflow="hidden"><defs><clipPath id="clip0"><rect x="886" y="525" width="96" height="96"/></clipPath></defs><g clip-path="url(#clip0)" transform="translate(-886 -525)"><path d="M923 565.08C923.538 564.521 923.839 563.776 923.84 563 923.843 562.212 923.53 561.455 922.97 560.9L913.49 551.41C912.93 550.85 912.172 550.533 911.38 550.53 910.592 550.536 909.837 550.852 909.28 551.41L908.23 552.47 921.91 566.12Z"/><path d="M936.75 589.36C936.177 589.943 935.24 589.95 934.657 589.377 934.651 589.371 934.646 589.366 934.64 589.36L917.64 572.36C917.055 571.774 917.055 570.826 917.64 570.24L919.76 568.18 906.13 554.56C905.25 555.44 904.39 556.3 903.83 556.83 902.458 558.112 901.638 559.875 901.54 561.75 901.416 564.808 901.962 567.855 903.14 570.68 904.268 573.211 905.652 575.62 907.27 577.87 912.896 586.311 920.012 593.658 928.27 599.55 929.649 600.57 931.099 601.489 932.61 602.3 936.025 604.095 939.766 605.183 943.61 605.5 946.24 605.691 948.814 604.68 950.61 602.75L952.49 600.87 938.81 587.24Z"/><path d="M955.63 593.51 946.15 584C944.981 582.843 943.099 582.843 941.93 584L940.93 585.08 954.57 598.78 955.63 597.78C956.787 596.611 956.787 594.729 955.63 593.56Z"/><path d="M948.14 575 944.14 575C943.706 569.263 939.602 564.471 934 563.16L934 559.08C941.826 560.481 947.673 567.063 948.14 575Z"/><path d="M957.7 573C957.7 573.67 957.7 574.34 957.61 575L953.61 575C953.679 574.336 953.712 573.668 953.71 573 953.693 562.123 944.877 553.311 934 553.3L934 549.3C947.085 549.311 957.689 559.915 957.7 573Z"/><path d="M968 573C968 573.67 968 574.34 967.93 575L963.93 575C963.93 574.34 964.01 573.67 964.01 573 964.01 556.984 951.026 544 935.01 544 935.007 544 935.003 544 935 544 934.66 544 934.33 544 934 544L934 540 935 540C953.225 540 968 554.775 968 573Z"/></g></svg>